<?xml version="1.0" encoding="utf-8"?>
<!-- Generator: Adobe Illustrator 16.0.0, SVG Export Plug-In . SVG Version: 6.00 Build 0)  -->
<!DOCTYPE svg PUBLIC "-//W3C//DTD SVG 1.1//EN" "http://www.w3.org/Graphics/SVG/1.1/DTD/svg11.dtd">
<svg version="1.1" id="图层_6" xmlns="http://www.w3.org/2000/svg" xmlns:xlink="http://www.w3.org/1999/xlink" x="0px" y="0px"
	 width="200px" height="200px" viewBox="0 0 200 200" enable-background="new 0 0 200 200" xml:space="preserve">
<path fill="#FFFFFF" d="M151.729,122.563l8.508-3.681l-4.016-17.849l-13.49-11.25l-2.068-12.359l-12.486-10.631L113.27,31.5
	l-0.001-0.003C145.454,37.696,169.773,66,169.773,100c0,12.276-3.181,23.805-8.749,33.825l3.946,9.316
	c8.225-12.354,13.023-27.186,13.023-43.141c0-39.852-29.896-72.7-68.481-77.396v-0.001l-2.719-6.438
	c43.284,3.462,77.338,39.66,77.338,83.834c0,18.645-6.066,35.871-16.331,49.816l2.153,5.081
	c11.88-15.117,18.966-34.18,18.966-54.897c0-47.534-37.297-86.353-84.221-88.796L100,0.079L72.747,64.604l-17.164-0.809
	l-10.708,19.58L59.521,95.92l-0.552,1.307L41.646,138.24C34.435,127.254,30.227,114.122,30.227,100
	c0-30.915,20.105-57.122,47.951-66.282l4.265-9.703C47.826,31.978,22.006,62.964,22.006,100c0,17.722,5.92,34.055,15.877,47.152
	l-2.725,6.453h0C23.11,139.049,15.869,120.371,15.869,100c0-41.503,30.06-75.964,69.591-82.853l2.297-5.23
	C44.441,17.883,11.081,55.044,11.081,100c0,22.419,8.301,42.898,21.993,58.539h0l-4.734,11.209l47.187-22.693l7.099,6.258
	l27.992-12.278l31.319,14.732c-11.675,8.795-26.195,14.013-41.937,14.013c-14.183,0-27.372-4.239-38.382-11.511l-8.515,4.035
	c13.053,9.844,29.289,15.69,46.897,15.69c19.133,0,36.646-6.9,50.216-18.333l6.07,2.855l0.003,0.001
	C141.38,175.95,121.647,184.132,100,184.132c-20.142,0-38.627-7.081-53.11-18.887l-4.888,2.152
	c15.57,13.412,35.836,21.521,57.998,21.521c23.601,0,45.055-9.194,60.975-24.197l0.003,0.001l10.683,5.025l-19.205-45.471
	L151.729,122.563z M86.347,55.171l14.153,1.555l11.378,10.025l-0.71,10.341l-14.567,0.333L82.947,65.339L86.347,55.171z
	 M49.69,82.06l8.339-15.053l20.713,0.71l14.225,12.608L89.782,95.25l-22.127,2.858L49.69,82.06z M106.472,137.623l-23.829,10.17
	l-21.549-19.379l8.153-24.07l22.445-3.67l16.381,14.577L106.472,137.623z M112.029,111.441L96.338,97.495l2.433-14.886l14.678-0.824
	l12.762,11.275l0.711,14.485L112.029,111.441z M116.267,79.683l0.267-10.426l10.63,0.346l10.442,9.182l1.535,10.39l-10.554,1.388
	L116.267,79.683z M146.445,121.037l-13.827-12.245l-1.229-14.269l10.434-1.738l11.5,10.136l3.181,13.78L146.445,121.037z"/>
</svg>
